HIERARCHY
ROOT Hips
{
	OFFSET 0.00000 0.00000 0.00000
	CHANNELS 6 Xposition Yposition Zposition Zrotation Yrotation Xrotation 
	JOINT LHipJoint
	{
		OFFSET 0 0 0
		CHANNELS 3 Zrotation Yrotation Xrotation
		JOINT LeftUpLeg
		{
			OFFSET 1.75344 -1.53157 0.77399
			CHANNELS 3 Zrotation Yrotation Xrotation
			JOINT LeftLeg
			{
				OFFSET 2.25415 -6.19323 0.00000
				CHANNELS 3 Zrotation Yrotation Xrotation
				JOINT LeftFoot
				{
					OFFSET 2.30342 -6.32861 0.00000
					CHANNELS 3 Zrotation Yrotation Xrotation
					JOINT LeftToeBase
					{
						OFFSET 0.10958 -0.30108 1.49206
						CHANNELS 3 Zrotation Yrotation Xrotation
						End Site
						{
							OFFSET 0.00000 -0.00000 0.77783
						}
					}
				}
			}
		}
	}
	JOINT RHipJoint
	{
		OFFSET 0 0 0
		CHANNELS 3 Zrotation Yrotation Xrotation
		JOINT RightUpLeg
		{
			OFFSET -1.81912 -1.53156 0.77399
			CHANNELS 3 Zrotation Yrotation Xrotation
			JOINT RightLeg
			{
				OFFSET -2.22882 -6.12365 0.00000
				CHANNELS 3 Zrotation Yrotation Xrotation
				JOINT RightFoot
				{
					OFFSET -2.21943 -6.09785 0.00000
					CHANNELS 3 Zrotation Yrotation Xrotation
					JOINT RightToeBase
					{
						OFFSET -0.18931 -0.52012 1.59379
						CHANNELS 3 Zrotation Yrotation Xrotation
						End Site
						{
							OFFSET -0.00000 -0.00000 0.84686
						}
					}
				}
			}
		}
	}
	JOINT LowerBack
	{
		OFFSET 0 0 0
		CHANNELS 3 Zrotation Yrotation Xrotation
		JOINT Spine
		{
			OFFSET -0.00200 1.66634 -0.14248
			CHANNELS 3 Zrotation Yrotation Xrotation
			JOINT Spine1
			{
				OFFSET -0.00875 1.64542 0.09514
				CHANNELS 3 Zrotation Yrotation Xrotation
				JOINT Neck
				{
					OFFSET 0 0 0
					CHANNELS 3 Zrotation Yrotation Xrotation
					JOINT Neck1
					{
						OFFSET 0.02257 1.59605 0.00839
						CHANNELS 3 Zrotation Yrotation Xrotation
						JOINT Head
						{
							OFFSET -0.10214 1.57530 -0.23335
							CHANNELS 3 Zrotation Yrotation Xrotation
							End Site
							{
								OFFSET -0.03588 1.60717 -0.08062
							}
						}
					}
				}
				JOINT LeftShoulder
				{
					OFFSET 0 0 0
					CHANNELS 3 Zrotation Yrotation Xrotation
					JOINT LeftArm
					{
						OFFSET 2.54983 1.10186 0.40078
						CHANNELS 3 Zrotation Yrotation Xrotation
						JOINT LeftForeArm
						{
							OFFSET 4.28840 -0.00000 0.00000
							CHANNELS 3 Zrotation Yrotation Xrotation
							JOINT LeftHand
							{
								OFFSET 3.06552 -0.00000 -0.00000
								CHANNELS 3 Zrotation Yrotation Xrotation
								JOINT LeftFingerBase
								{
									OFFSET 0 0 0
									CHANNELS 3 Zrotation Yrotation Xrotation
									JOINT LeftHandIndex1
									{
										OFFSET 0.75304 -0.00000 0.00000
										CHANNELS 3 Zrotation Yrotation Xrotation
										End Site
										{
											OFFSET 0.60712 -0.00000 0.00000
										}
									}
								}
								JOINT LThumb
								{
									OFFSET 0 0 0
									CHANNELS 3 Zrotation Yrotation Xrotation
									End Site
									{
										OFFSET 0.61639 -0.00000 0.61639
									}
								}
							}
						}
					}
				}
				JOINT RightShoulder
				{
					OFFSET 0 0 0
					CHANNELS 3 Zrotation Yrotation Xrotation
					JOINT RightArm
					{
						OFFSET -2.60909 1.35448 0.21802
						CHANNELS 3 Zrotation Yrotation Xrotation
						JOINT RightForeArm
						{
							OFFSET -4.52172 -0.00000 -0.00000
							CHANNELS 3 Zrotation Yrotation Xrotation
							JOINT RightHand
							{
								OFFSET -2.89140 -0.00000 0.00000
								CHANNELS 3 Zrotation Yrotation Xrotation
								JOINT RightFingerBase
								{
									OFFSET 0 0 0
									CHANNELS 3 Zrotation Yrotation Xrotation
									JOINT RightHandIndex1
									{
										OFFSET -0.68054 -0.00000 0.00000
										CHANNELS 3 Zrotation Yrotation Xrotation
										End Site
										{
											OFFSET -0.54867 -0.00000 0.00000
										}
									}
								}
								JOINT RThumb
								{
									OFFSET 0 0 0
									CHANNELS 3 Zrotation Yrotation Xrotation
									End Site
									{
										OFFSET -0.55705 -0.00000 0.55705
									}
								}
							}
						}
					}
				}
			}
		}
	}
}
MOTION
Frames: 11
Frame Time: .0083333
8.0964 15.3305 -34.8268 360.4350 -6.1439 2.1203 0.0000 0.0000 0.0000 -19.6137 -7.9259 -17.4866 4.8138 13.1710 40.0120 0.9571 -2.9287 -17.7366 0.3026 3.5367 9.7768 0.0000 0.0000 0.0000 25.5571 6.0287 2.8957 -2.3173 -9.4978 27.3653 -0.2117 -24.1297 -35.1727 -0.0027 -0.3334 0.9161 5.5568 3.4619 4.1392 -1.2999 5.0315 -6.3674 -5.0346 2.0562 -8.4647 -3.6097 1.8443 -4.3509 1.4683 2.6459 10.7969 1.2668 1.2331 4.2596 -0.0000 -0.0000 0.0000 0.0585 -42.9473 -71.5492 13.3760 -21.8357 -2.5915 -0.0000 -0.0000 42.8174 11.4178 -19.3878 -3.8355 -7.1250 0.0000 -0.0000 -10.9035 10.5067 8.8994 -0.0000 -0.0000 0.0000 38.0117 -6.7833 45.2985 -13.6519 22.2348 -2.6950 0.0000 0.0000 46.9294 141.8805 62.9653 -34.9502 7.1250 -0.0000 -0.0000 -168.7181 -51.5076 -1.8278
8.0305 15.3112 -34.8884 360.5440 -4.5495 1.8499 0.0000 0.0000 0.0000 -19.4871 -8.1574 -17.8356 4.9069 13.2782 40.4188 0.9723 -3.7404 -17.7563 0.2344 3.1163 8.6026 0.0000 0.0000 0.0000 26.0364 5.7409 3.3348 -2.2530 -9.3743 26.9735 -0.2385 -24.7543 -36.1314 -0.0123 -0.7154 1.9659 5.1234 3.5196 4.1801 -1.1949 5.0741 -6.0483 -4.6723 2.1281 -8.1751 -4.5313 1.1010 -4.3594 1.7587 1.6923 10.9478 1.4880 0.7362 4.3417 0.0000 -0.0000 0.0000 1.2770 -44.5895 -72.5407 13.6064 -22.1692 -2.6778 -0.0000 -0.0000 41.7629 13.7750 -19.3717 -4.6490 -7.1250 0.0000 -0.0000 -9.3825 10.2871 7.6623 0.0000 -0.0000 0.0000 39.1402 -5.9431 44.3803 -13.7293 22.3463 -2.7243 0.0000 0.0000 49.3534 144.5611 63.4929 -32.4919 7.1250 -0.0000 -0.0000 -167.2490 -51.6502 -2.1170
7.9626 15.2865 -34.9533 360.6690 -2.9050 1.6208 0.0000 0.0000 0.0000 -19.3819 -8.4855 -18.2295 5.0022 13.3862 40.8320 0.9588 -4.5502 -17.5401 0.2150 2.9851 8.2371 0.0000 0.0000 0.0000 26.5129 5.4567 3.7084 -2.1848 -9.2408 26.5514 -0.2055 -25.6067 -37.0621 -0.0221 -0.9593 2.6369 4.8281 3.5716 4.5734 -1.2829 5.1334 -5.9699 -4.6356 2.1677 -8.3283 -5.2351 0.3452 -4.1783 2.2002 0.6761 11.2272 1.7192 0.2222 4.4505 0.0000 0.0000 0.0000 2.4195 -46.2011 -72.4647 13.9250 -22.6274 -2.7992 -0.0000 -0.0000 40.3880 15.8228 -19.4699 -5.3962 -7.1250 0.0000 -0.0000 -8.0618 9.9615 6.6133 0.0000 0.0000 0.0000 40.6851 -5.3549 43.5201 -13.8032 22.4527 -2.7525 0.0000 0.0000 51.4238 147.6857 64.0780 -29.6349 7.1250 -0.0000 -0.0000 -165.5776 -51.7412 -2.4364
7.8928 15.2580 -35.0170 360.6960 -1.1691 1.4322 0.0000 0.0000 0.0000 -19.1698 -8.9526 -18.6911 5.1061 13.5023 41.2792 0.9484 -5.1990 -17.3977 0.1597 2.5745 7.0963 0.0000 0.0000 0.0000 27.0930 5.0909 3.9417 -2.1302 -9.1322 26.2099 -0.4149 -25.9910 -38.6148 -0.0927 -1.9638 5.4055 4.7721 3.5978 5.2674 -1.4821 5.1934 -6.2016 -4.8949 2.1615 -8.9719 -5.8137 -0.3734 -3.4992 2.9118 -0.3732 11.9101 1.8284 -0.2808 4.1493 -0.0000 -0.0000 0.0000 3.1253 -47.9309 -71.5743 14.3439 -23.2242 -2.9624 -0.0000 -0.0000 39.1779 17.6288 -19.9456 -6.1868 -7.1250 0.0000 -0.0000 -6.9184 9.2559 5.7588 -0.0000 -0.0000 0.0000 42.5707 -5.0947 42.8138 -13.8958 22.5856 -2.7880 0.0000 0.0000 52.6998 150.6547 64.6963 -26.9430 7.1250 -0.0000 -0.0000 -164.0227 -51.6748 -2.6835
7.8236 15.2306 -35.0735 360.7660 0.5446 1.3127 0.0000 0.0000 0.0000 -19.0223 -9.4396 -19.2552 5.2299 13.6381 41.8065 0.9971 -5.5898 -17.8313 0.0161 0.8185 2.2496 0.0000 0.0000 0.0000 27.5950 4.6757 4.0168 -2.0909 -9.0529 25.9610 -0.7788 -26.0362 -40.4027 -0.2640 -3.3057 9.1309 4.3104 3.5715 5.0540 -1.3080 5.1095 -5.8927 -4.4087 2.1799 -8.5670 -6.8122 -1.0020 -3.5394 3.2916 -1.1862 12.0917 2.0715 -0.7072 4.2571 -0.0000 0.0000 0.0000 3.7578 -49.5254 -71.9589 14.9271 -24.0445 -3.1962 -0.0000 -0.0000 38.4454 19.5026 -20.5790 -7.0962 -7.1250 0.0000 -0.0000 -5.7547 8.3512 4.8832 -0.0000 0.0000 0.0000 43.6963 -4.0777 42.1402 -14.0166 22.7585 -2.8345 0.0000 0.0000 53.4118 153.0668 65.5703 -24.8239 7.1250 -0.0000 -0.0000 -162.7676 -51.2110 -2.7047
7.7572 15.2013 -35.1270 360.8590 2.1845 1.2647 0.0000 0.0000 0.0000 -18.9265 -9.9168 -19.9155 5.3713 13.7901 42.4030 0.9208 -6.7064 -17.1230 0.0507 1.4535 3.9975 0.0000 0.0000 0.0000 28.0043 4.1052 3.8609 -2.0683 -9.0069 25.8170 -1.0989 -26.0957 -41.9061 -0.4330 -4.2227 11.7040 4.1819 3.5928 5.1138 -1.4433 5.1191 -5.8642 -4.4852 2.1889 -8.5678 -7.3077 -1.6468 -3.3417 3.6223 -2.0744 12.4104 2.2132 -1.1543 4.3761 -0.0000 -0.0000 0.0000 4.0720 -51.0175 -70.4504 15.7348 -25.1597 -3.5324 -0.0000 -0.0000 36.4819 21.5746 -21.0570 -8.0860 -7.1250 0.0000 -0.0000 -4.4699 7.5463 3.8562 -0.0000 -0.0000 0.0000 45.4785 -3.5546 41.2326 -14.1712 22.9789 -2.8946 0.0000 0.0000 53.5646 155.4953 65.6519 -22.5523 7.1250 -0.0000 -0.0000 -161.6325 -51.4281 -2.9931
7.6979 15.1673 -35.1771 360.8570 3.8088 1.1932 0.0000 0.0000 0.0000 -18.8073 -10.3598 -20.5586 5.5221 13.9487 43.0323 0.8839 -7.4539 -16.8188 0.0527 1.4813 4.0741 0.0000 0.0000 0.0000 28.4481 3.3646 3.5645 -2.0612 -8.9923 25.7713 -1.3711 -26.2506 -43.2378 -0.5325 -4.6758 12.9862 4.2009 3.6413 5.1402 -1.5541 5.1799 -5.8543 -4.6214 2.2148 -8.5547 -7.7189 -2.3316 -2.8841 3.8282 -3.0309 12.6616 2.2998 -1.6396 4.4401 -0.0000 0.0000 0.0000 3.9989 -52.5261 -68.3562 16.6869 -26.4432 -3.9469 -0.0000 -0.0000 34.2119 23.5049 -21.6613 -9.1201 -7.1250 0.0000 -0.0000 -3.3038 6.5949 2.9075 -0.0000 0.0000 0.0000 47.2621 -3.1904 40.4100 -14.3746 23.2677 -2.9745 0.0000 0.0000 53.3013 157.4692 65.7580 -20.7198 7.1250 -0.0000 -0.0000 -160.7096 -51.5314 -3.2031
7.6446 15.1289 -35.2247 360.8530 5.4285 1.0693 0.0000 0.0000 0.0000 -18.7587 -10.7858 -21.1249 5.6726 14.1034 43.6531 0.8750 -7.9923 -16.7818 0.0662 1.6595 4.5657 0.0000 0.0000 0.0000 28.8336 2.5581 3.2510 -2.0575 -8.9849 25.7482 -1.6932 -26.2981 -44.6025 -0.6488 -5.1527 14.3446 4.2144 3.6572 4.9727 -1.5532 5.1917 -5.6745 -4.6040 2.2352 -8.2576 -8.3102 -2.9908 -2.5278 3.9751 -3.9279 12.8118 2.3990 -2.1054 4.4963 -0.0000 -0.0000 0.0000 3.7126 -53.8949 -66.3393 17.7803 -27.8750 -4.4461 -0.0000 -0.0000 31.8644 25.4251 -22.3399 -10.2422 -7.1250 0.0000 -0.0000 -2.1728 5.5286 1.9548 -0.0000 -0.0000 0.0000 48.7417 -2.5954 39.9621 -14.6793 23.6974 -3.0959 0.0000 0.0000 52.4062 160.5439 66.1115 -17.9002 7.1250 -0.0000 -0.0000 -159.3039 -51.4526 -3.4122
7.5920 15.0978 -35.2671 360.8450 6.9135 1.0709 0.0000 0.0000 0.0000 -18.6974 -11.0668 -21.8407 5.8146 14.2463 44.2332 0.8507 -8.4598 -16.6100 0.0900 1.9348 5.3255 0.0000 0.0000 0.0000 29.1956 1.9223 2.8568 -2.0532 -8.9760 25.7203 -2.0385 -26.1971 -45.8540 -0.8358 -5.8320 16.2976 4.2283 3.6706 4.7574 -1.5220 5.2029 -5.6071 -4.5574 2.2507 -8.0585 -8.8738 -3.5791 -2.2385 3.9706 -4.7120 13.0755 2.4504 -2.5233 4.5945 0.0000 -0.0000 0.0000 2.7492 -54.9044 -63.2406 19.1500 -29.6046 -5.1047 -0.0000 -0.0000 29.0505 27.5054 -22.8778 -11.4435 -7.1250 0.0000 -0.0000 -0.9471 4.5407 0.8693 0.0000 -0.0000 0.0000 50.0698 -2.0292 40.0341 -14.8816 23.9809 -3.1777 0.0000 0.0000 51.8712 163.8367 67.1723 -14.9563 7.1250 -0.0000 -0.0000 -157.9869 -50.6482 -3.1979
7.5396 15.0769 -35.3080 360.7020 8.2266 1.0690 0.0000 0.0000 0.0000 -18.5117 -11.0541 -22.6145 5.9464 14.3762 44.7661 0.8334 -8.8085 -16.4976 0.0481 1.4158 3.8938 0.0000 0.0000 0.0000 29.7222 1.4926 2.5178 -2.0474 -8.9641 25.6831 -2.2952 -26.2914 -46.9150 -0.9802 -6.3021 17.6635 4.3543 3.6989 4.6105 -1.4441 5.2520 -5.6142 -4.5376 2.2738 -7.9722 -9.3325 -4.1349 -1.9420 3.8338 -5.4473 13.4474 2.4446 -2.9211 4.7203 0.0000 -0.0000 0.0000 1.2428 -55.8088 -59.9019 20.7198 -31.4998 -5.9029 -0.0000 -0.0000 26.8808 29.3487 -23.8820 -12.8247 -7.1250 0.0000 -0.0000 0.0415 3.0511 -0.0392 0.0000 -0.0000 0.0000 51.3422 -1.4994 40.6095 -14.9651 24.0975 -3.2117 0.0000 0.0000 51.2736 163.3007 68.2664 -15.5718 7.1250 -0.0000 -0.0000 -158.3890 -49.6011 -2.5586
7.4885 15.0560 -35.3514 360.4930 9.4317 0.9150 0.0000 0.0000 0.0000 -18.3219 -10.9489 -23.1743 6.0678 14.4938 45.2533 0.8522 -9.0417 -16.7047 0.0114 0.6908 1.8983 0.0000 0.0000 0.0000 30.2436 0.8390 2.2586 -2.0345 -8.9376 25.6002 -2.4224 -26.4450 -47.5276 -1.0420 -6.4919 18.2186 4.5721 3.7405 4.6704 -1.3744 5.3350 -5.6008 -4.5971 2.3042 -7.9728 -9.6895 -4.6838 -1.6118 3.7091 -6.1862 13.7946 2.4251 -3.3156 4.8329 -0.0000 -0.0000 0.0000 -0.4815 -56.7482 -56.7588 22.4003 -33.4265 -6.8051 -0.0000 -0.0000 25.5353 30.9489 -25.2664 -14.3564 -7.1250 0.0000 -0.0000 0.7855 1.1566 -0.7695 -0.0000 -0.0000 0.0000 52.6999 -0.9865 41.2837 -15.1692 24.3813 -3.2955 0.0000 0.0000 50.2099 161.8746 68.0117 -16.8846 7.1250 -0.0000 -0.0000 -158.9337 -49.7613 -2.5746
